<svg version="1.1" xmlns="http://www.w3.org/2000/svg" xmlns:xlink="http://www.w3.org/1999/xlink" width="81.4909" height="81.531" viewBox="0,0,81.4909,81.531"><g transform="translate(-204.88229,-142.21372)"><g data-paper-data="{&quot;isPaintingLayer&quot;:true}" fill-rule="nonzero" stroke="none" stroke-width="0" stroke-linecap="butt" stroke-linejoin="miter" stroke-miterlimit="10" stroke-dasharray="" stroke-dashoffset="0" style="mix-blend-mode: normal"><path d="M241.10743,214.86964c0,0 11.0814,3.95133 -9.64996,2.9858c-1.0446,-0.4271 -2.36553,-1.33666 -3.3237,-1.86096c-5.74773,-3.1451 -7.08766,-7.48348 -11.4435,-12.164c-4.28809,-4.60771 -5.46394,-9.65745 -7.08151,-14.74023c-3.77098,-11.84931 -1.44218,-19.14263 5.95112,-28.10314c9.17075,-11.11474 31.33145,-20.18496 48.50506,-11.56668c4.13488,2.07501 9.63735,4.81417 9.63735,4.81417c0,0 7.92168,7.81696 9.68595,11.3642c3.0934,5.28542 3.71717,13.66572 2.17367,13.85539c-3.01716,0.37076 -8.38784,-8.52003 -26.63669,0.49217c-5.82353,2.87596 -11.56177,16.20952 -11.56177,16.20952z" fill="#292929"/><path d="M242.81695,182.92458c-2.53703,14.17664 -0.53999,20.55966 6.02916,35.17979c4.09552,9.11488 -9.52208,5.37867 -17.00777,1.3185c-13.39991,-5.47873 -20.78719,-16.05617 -24.80244,-27.83431c-4.33314,-12.71065 -1.68393,-20.8468 4.00229,-30.69654c3.75184,-5.13613 14.04796,-17.02058 27.15549,-18.44504c9.18667,-0.99836 19.74772,1.19078 28.7595,6.90073c7.09217,4.49367 7.81145,5.43416 5.83478,6.51307c-2.45534,1.34017 -8.94197,2.74934 -15.97403,6.33395c-11.93195,7.8562 -13.52248,18.07845 -13.99697,20.72987z" fill="#1f1f1f"/></g></g></svg>